<?xml version="1.0" encoding="utf-8"?>
<!-- Generator: Adobe Illustrator 19.0.0, SVG Export Plug-In . SVG Version: 6.00 Build 0)  -->
<svg version="1.1" id="Layer_1" xmlns="http://www.w3.org/2000/svg" xmlns:xlink="http://www.w3.org/1999/xlink" x="0px" y="0px"
	 viewBox="0 0 96 96" style="enable-background:new 0 0 96 96;" xml:space="preserve">
<g id="XMLID_1_">
	<path id="XMLID_9_" d="M27.4,48c0,8,4.7,14.8,11.6,18.1l-9.8-26.3C28,42.3,27.4,45.1,27.4,48z M61.9,47c0-2.5-0.9-4.2-1.7-5.5
		c-1-1.7-2-3.1-2-4.7c0-1.8,1.4-3.6,3.5-3.6l0.3,0c-3.7-3.3-8.6-5.3-13.9-5.3c-7.2,0-13.5,3.6-17.2,9.1c0.5,0,0.9,0,1.3,0
		c2.2,0,5.5-0.3,5.5-0.3c1.1-0.1,1.2,1.5,0.1,1.7c0,0-1.1,0.1-2.4,0.2l7.5,21.8l4.5-13.2l-3.2-8.6c-1.1-0.1-2.2-0.2-2.2-0.2
		c-1.1-0.1-1-1.7,0.1-1.7c0,0,3.4,0.3,5.4,0.3c2.2,0,5.5-0.3,5.5-0.3c1.1-0.1,1.2,1.5,0.1,1.7c0,0-1.1,0.1-2.4,0.2l7.5,21.6l2.1-6.7
		C61.2,50.7,61.9,48.7,61.9,47L61.9,47z M48.4,49.8l-6.2,17.5c1.8,0.5,3.8,0.8,5.8,0.8c2.4,0,4.7-0.4,6.8-1.1l-0.1-0.3L48.4,49.8z
		 M66.1,38.4c0.1,0.6,0.1,1.3,0.1,2.1c0,2-0.4,4.3-1.6,7.2l-6.3,17.7c6.1-3.5,10.3-10,10.3-17.4C68.6,44.5,67.7,41.2,66.1,38.4
		L66.1,38.4z M48,20.5c-15.2,0-27.5,12.3-27.5,27.5S32.8,75.5,48,75.5S75.5,63.2,75.5,48S63.2,20.5,48,20.5z M48,72.1
		c-13.3,0-24.1-10.8-24.1-24.1S34.7,23.9,48,23.9S72.1,34.7,72.1,48S61.3,72.1,48,72.1z"/>
</g>
</svg>
